<?xml version="1.0" encoding="utf-8"?>
<!-- Generator: Adobe Illustrator 25.0.0, SVG Export Plug-In . SVG Version: 6.00 Build 0)  -->
<svg version="1.1" id="Layer_1" xmlns="http://www.w3.org/2000/svg" xmlns:xlink="http://www.w3.org/1999/xlink" x="0px" y="0px"
	 viewBox="0 0 534.9 185.3" style="enable-background:new 0 0 534.9 185.3;" xml:space="preserve">
<style type="text/css">
	.st0{fill:#5C5D5C;}
	.st1{clip-path:url(#SVGID_2_);fill:#5C5D5C;}
	.st2{clip-path:url(#SVGID_4_);fill:#5C5D5C;}
	.st3{clip-path:url(#SVGID_6_);fill:#5C5D5C;}
	.st4{clip-path:url(#SVGID_8_);fill:#5C5D5C;}
	.st5{clip-path:url(#SVGID_10_);fill:#5C5D5C;}
	.st6{clip-path:url(#SVGID_12_);fill:#5C5D5C;}
	.st7{clip-path:url(#SVGID_14_);fill:#5C5D5C;}
	.st8{clip-path:url(#SVGID_16_);fill:#5C5D5C;}
	.st9{clip-path:url(#SVGID_18_);fill:#5C5D5C;}
	.st10{clip-path:url(#SVGID_20_);fill:#5C5D5C;}
</style>
<polygon class="st0" points="260.6,39.1 246.4,81 235.4,81 226.6,49.2 217.7,81 207.2,81 192.9,39.1 202.6,39.1 212.5,71.5 
	221.5,39.1 232.5,39.1 241.5,71.5 251.4,39.1 "/>
<polygon class="st0" points="265.6,39.1 295.7,39.1 295.7,46.7 274.6,46.7 274.6,56 292.8,56 292.8,63.7 274.6,63.7 274.6,73.3 
	295.7,73.3 295.7,81 265.6,81 "/>
<path class="st0" d="M323.1,47.7L316,64.3h14.2L323.1,47.7z M333.3,71.6h-20.4l-4.1,9.4h-9.5l18.7-42h10.6l18.7,42h-10.1L333.3,71.6
	z"/>
<polygon class="st0" points="351.7,39.1 360.8,39.1 360.8,73.3 383.5,73.3 383.5,81 351.7,81 "/>
<g>
	<g>
		<g>
			<defs>
				<rect id="SVGID_1_" x="6.9" y="8.3" width="522.4" height="167.9"/>
			</defs>
			<clipPath id="SVGID_2_">
				<use xlink:href="#SVGID_1_"  style="overflow:visible;"/>
			</clipPath>
			<path class="st1" d="M459.8,69.5L449,61c-1.8,1.3-2.9,3.2-2.9,5.3c0,3.4,2.8,5.9,6.4,5.9C455.5,72.2,457.7,71.3,459.8,69.5
				 M465.7,44.5l-5.5,4.9c-1.1-2-3-3.2-5.7-3.2c-2.9,0-4.7,1.7-4.7,3.9c0,1.6,0.8,3.1,3,4.8l12,9.4l4.6-5.2l5.9,4l-4.8,5.5l6.4,5
				l-4.8,5.5l-6.6-5.2c-4.3,3.9-8.7,5.2-13.4,5.2c-7.8,0-13.9-5.2-13.9-12.2c0-4.2,2-7.7,5.8-10.4c-1.5-1.9-2.4-4-2.4-6.5
				c0-6.1,5.5-10.6,13-10.6C459.8,39.3,463.6,41.6,465.7,44.5"/>
		</g>
	</g>
	<g>
		<g>
			<defs>
				<rect id="SVGID_3_" x="6.9" y="8.3" width="522.4" height="167.9"/>
			</defs>
			<clipPath id="SVGID_4_">
				<use xlink:href="#SVGID_3_"  style="overflow:visible;"/>
			</clipPath>
			<path class="st2" d="M205.9,100.8v26.4h5.3c8.6,0,14.3-5.2,14.3-13.2c0-8-5.7-13.2-14.4-13.2H205.9z M197.8,93.1h13.4
				c13.3,0,22.8,8.7,22.8,21c0,12.1-9.4,20.8-22.5,20.8h-13.7L197.8,93.1L197.8,93.1z"/>
		</g>
	</g>
	<g>
		<g>
			<defs>
				<rect id="SVGID_5_" x="6.9" y="8.3" width="522.4" height="167.9"/>
			</defs>
			<clipPath id="SVGID_6_">
				<use xlink:href="#SVGID_5_"  style="overflow:visible;"/>
			</clipPath>
			<path class="st3" d="M270.8,114.1c0-7.6-5.6-13.7-12.5-13.7c-6.9,0-12.5,6.1-12.5,13.7c0,7.5,5.6,13.6,12.5,13.6
				C265.2,127.7,270.8,121.6,270.8,114.1 M279.1,114.1c0,12-9.4,21.8-20.9,21.8c-11.5,0-20.8-9.8-20.8-21.8
				c0-12.1,9.3-21.8,20.8-21.8C269.7,92.2,279.1,102.1,279.1,114.1"/>
		</g>
	</g>
</g>
<polygon class="st0" points="337.9,93.1 325.1,134.9 315.3,134.9 307.4,103.2 299.4,134.9 289.9,134.9 277.2,93.1 285.8,93.1 
	294.7,125.5 302.8,93.1 312.6,93.1 320.8,125.5 329.6,93.1 "/>
<polygon class="st0" points="348,106.6 348,134.9 340.1,134.9 340.1,93.1 348.6,93.1 367.4,121.7 367.4,93.1 375.3,93.1 
	375.3,134.9 366.8,134.9 "/>
<polygon class="st0" points="380.7,93.1 388.5,93.1 388.5,127.2 408.2,127.2 408.2,134.9 380.7,134.9 "/>
<path class="st0" d="M429.8,101.7l-6.2,16.6h12.3L429.8,101.7z M438.6,125.5h-17.7l-3.5,9.4h-8.2l16.2-41.8h9.2l16.2,41.8h-8.7
	L438.6,125.5z"/>
<polygon class="st0" points="461,106.6 461,134.9 453.1,134.9 453.1,93.1 461.6,93.1 480.4,121.7 480.4,93.1 488.3,93.1 
	488.3,134.9 479.8,134.9 "/>
<g>
	<g>
		<g>
			<defs>
				<rect id="SVGID_7_" x="6.9" y="8.3" width="522.4" height="167.9"/>
			</defs>
			<clipPath id="SVGID_8_">
				<use xlink:href="#SVGID_7_"  style="overflow:visible;"/>
			</clipPath>
			<path class="st4" d="M501.1,100.8v26.4h5.3c8.6,0,14.3-5.2,14.3-13.2c0-8-5.7-13.2-14.4-13.2H501.1z M493.1,93.1h13.4
				c13.3,0,22.8,8.7,22.8,21c0,12.1-9.4,20.8-22.5,20.8h-13.7V93.1z"/>
		</g>
	</g>
</g>
<polygon class="st0" points="197.7,152 197.7,175.7 214.5,175.7 214.5,172.8 200.9,172.8 200.9,152 "/>
<rect x="222.5" y="152" class="st0" width="3.2" height="23.7"/>
<polygon class="st0" points="253.8,152 247.9,164.1 245.5,169.5 245.2,169.5 242.9,164.1 236.9,152 233.2,152 245,175.7 
	245.7,175.7 257.4,152 "/>
<rect x="265" y="152" class="st0" width="3.3" height="23.7"/>
<polygon class="st0" points="296.8,152 296.8,168.8 280,152 279.1,152 279.1,175.7 282.3,175.7 282.3,158.7 299.1,175.7 
	300.1,175.7 300.1,152 "/>
<g>
	<g>
		<g>
			<defs>
				<rect id="SVGID_9_" x="6.9" y="8.3" width="522.4" height="167.9"/>
			</defs>
			<clipPath id="SVGID_10_">
				<use xlink:href="#SVGID_9_"  style="overflow:visible;"/>
			</clipPath>
			<path class="st5" d="M320.9,162.6h11.7v1.8c0,7.2-4.1,11.9-11.2,11.9c-7.6,0-12.3-5.5-12.3-12.4c0-7,4.8-12.4,12.4-12.4
				c6.1,0,8.8,3.1,8.8,3.1l-1.9,2.5c0,0-2.5-2.5-6.9-2.5c-5.6,0-9.1,4.1-9.1,9.3c0,5.1,3.4,9.3,8.9,9.3c4.6,0,7.7-3,7.8-7.4v-0.3
				h-8.4L320.9,162.6L320.9,162.6z"/>
		</g>
	</g>
</g>
<polygon class="st0" points="376.3,152 365.4,163.4 354.6,152 353.7,152 353.7,175.7 357,175.7 357,159.1 365,167.7 365.9,167.7 
	373.9,159.1 373.9,175.7 377.1,175.7 377.1,152 "/>
<g>
	<g>
		<g>
			<defs>
				<rect id="SVGID_11_" x="6.9" y="8.3" width="522.4" height="167.9"/>
			</defs>
			<clipPath id="SVGID_12_">
				<use xlink:href="#SVGID_11_"  style="overflow:visible;"/>
			</clipPath>
			<path class="st6" d="M387.6,165.8V152h3.2v13.8c0,4.2,2.3,7.4,6.9,7.4c4.6,0,6.8-3.2,6.8-7.4V152h3.3v13.8
				c0,6.2-3.7,10.5-10.1,10.5C391.3,176.3,387.6,171.9,387.6,165.8"/>
		</g>
	</g>
	<g>
		<g>
			<defs>
				<rect id="SVGID_13_" x="6.9" y="8.3" width="522.4" height="167.9"/>
			</defs>
			<clipPath id="SVGID_14_">
				<use xlink:href="#SVGID_13_"  style="overflow:visible;"/>
			</clipPath>
			<path class="st7" d="M418.4,170.9c0,0,2.6,2.3,7.1,2.3c4,0,5.7-1.5,5.7-3.8c0-2-1.3-3-6.2-4.4c-5.7-1.6-8.3-3.4-8.3-7
				c0-4.1,3.3-6.5,8.9-6.5c5.9,0,8.5,2.3,8.5,2.3l-1.8,2.7c0,0-2.4-1.9-6.8-1.9c-3.2,0-5.4,1.2-5.4,3.4c0,1.8,1.5,2.7,6.2,4
				c6.2,1.7,8.3,3.8,8.3,7.4c0,3.9-2.8,6.9-9.1,6.9c-6.1,0-8.9-2.9-8.9-2.9L418.4,170.9z"/>
		</g>
	</g>
</g>
<polygon class="st0" points="443.7,152 443.7,175.7 461.4,175.7 461.4,172.8 447,172.8 447,165.4 459.5,165.4 459.5,162.6 
	447,162.6 447,155 461.4,155 461.4,152 "/>
<g>
	<g>
		<g>
			<defs>
				<rect id="SVGID_15_" x="6.9" y="8.3" width="522.4" height="167.9"/>
			</defs>
			<clipPath id="SVGID_16_">
				<use xlink:href="#SVGID_15_"  style="overflow:visible;"/>
			</clipPath>
			<path class="st8" d="M470.1,165.8V152h3.2v13.8c0,4.2,2.3,7.4,6.9,7.4c4.6,0,6.8-3.2,6.8-7.4V152h3.3v13.8
				c0,6.2-3.7,10.5-10.1,10.5C473.8,176.3,470.1,171.9,470.1,165.8"/>
		</g>
	</g>
</g>
<polygon class="st0" points="523.3,152 512.4,163.4 501.7,152 500.7,152 500.7,175.7 504,175.7 504,159.1 512,167.7 512.9,167.7 
	520.9,159.1 520.9,175.7 524.1,175.7 524.1,152 "/>
<g>
	<g>
		<g>
			<defs>
				<rect id="SVGID_17_" x="6.9" y="8.3" width="522.4" height="167.9"/>
			</defs>
			<clipPath id="SVGID_18_">
				<use xlink:href="#SVGID_17_"  style="overflow:visible;"/>
			</clipPath>
			<path class="st9" d="M397.6,46.9v26.4h5.3c8.6,0,14.3-5.2,14.3-13.2c0-8-5.7-13.2-14.4-13.2H397.6z M389.5,39.2h13.4
				c13.3,0,22.8,8.7,22.8,21c0,12.1-9.4,20.8-22.5,20.8h-13.7V39.2z"/>
		</g>
	</g>
	<g>
		<g>
			<defs>
				<rect id="SVGID_19_" x="6.9" y="8.3" width="522.4" height="167.9"/>
			</defs>
			<clipPath id="SVGID_20_">
				<use xlink:href="#SVGID_19_"  style="overflow:visible;"/>
			</clipPath>
			<path class="st10" d="M168.3,75.2H14.6v-2.7l77.2-55.9l76.5,55.9V75.2z M112.8,99.7V82.1h26.7c-4.9,2.3-9.5,5-14.1,8
				C121,93,116.8,96.2,112.8,99.7 M164.1,117.6h-3.6h-47.6v-10.9c4.7-4.4,9.8-8.4,15.5-12.2c7.9-5.3,15.9-9.4,24.5-12.4h0.8h10.4
				V117.6z M161.4,126.8h-3.1v-4.4h3.1V126.8z M148.9,122.4h3.8v4.4h-3.8V122.4z M160.5,169.8h-47.6v-10.9
				c4.7-4.4,9.8-8.4,15.5-12.2c9.9-6.6,20-11.5,31.1-14.5h1.1V169.8z M117.2,126.8h-4.8v-4.4h4.8V126.8z M139.4,122.4h4.8v4.4h-4.8
				V122.4z M130.4,122.4h4.8v4.4h-4.8V122.4z M121.4,122.4h4.8v4.4h-4.8V122.4z M144.1,132.3c-6.5,2.8-12.7,6.1-18.7,10
				c-4.4,3-8.6,6.2-12.6,9.7v-19.7H144.1z M108.2,126.8h-4.8v-4.4h4.8V126.8z M108.2,169.4h-3.8c1.2-1.5,2.5-3,3.8-4.4V169.4z
				 M104.1,134.1h3.7v13.2h-3.7V134.1z M98.9,134.1h3.8v13.2h-3.8V134.1z M97.4,147.3h-3.7v-13.2h3.7V147.3z M94.4,122.4h4.8v4.4
				h-4.8V122.4z M108.2,112.6v4.4h-3.8C105.6,115.5,106.9,114,108.2,112.6 M107.9,95h-3.7v-13h3.7V95z M98.9,82.1h3.8v13h-3.8V82.1z
				 M93.6,82.1h3.7v13h-3.7V82.1z M107.9,99.3v5.1c-3.7,3.6-7.1,7.5-10.2,11.7h-4.1V99.3H107.9z M93.6,168.3v-16.7h14.3v5.1
				c-3.7,3.6-7.1,7.5-10.2,11.7H93.6z M85.5,82.1h3.8v13h-3.8V82.1z M80.2,82.1H84v13h-3.8V82.1z M74.9,82.1h3.8v13h-3.8V82.1z
				 M89.3,116.1h-4.1c-3.2-4.1-6.6-8-10.2-11.7v-5.1h14.3V116.1z M84,147.3h-3.8v-13.2H84V147.3z M89.2,147.3h-3.8v-13.2h3.8V147.3z
				 M88,126.8h-4.8v-4.4H88V126.8z M89.3,168.3h-4.1c-3.2-4.1-6.6-8-10.2-11.7v-5.1h14.3V168.3z M74.2,169.4V165
				c1.3,1.4,2.6,2.9,3.8,4.4H74.2z M78.7,147.3h-3.8v-13.2h3.8V147.3z M74.2,117v-4.4c1.3,1.4,2.6,2.9,3.8,4.4H74.2z M79,126.8h-4.8
				v-4.4H79V126.8z M70,126.8h-4.8v-4.4H70V126.8z M70,152c-4-3.5-8.2-6.7-12.6-9.7c-5.9-3.9-12.2-7.3-18.7-10H70V152z M70,169.8
				H22.5v-37.6h0.9c11.1,3,21.2,7.9,31.1,14.5c5.7,3.8,10.8,7.8,15.5,12.2V169.8z M21.1,122.4h3.1v4.4h-3.1V122.4z M33.5,126.8h-3.8
				v-4.4h3.8V126.8z M43,126.8h-4.8v-4.4H43V126.8z M52,126.8h-4.8v-4.4H52V126.8z M61,126.8h-4.8v-4.4H61V126.8z M43.3,82.1H70
				v17.7c-4-3.5-8.2-6.7-12.6-9.7C52.9,87,48.2,84.4,43.3,82.1 M54.5,94.5c5.7,3.8,10.8,7.8,15.5,12.2v10.9H22.5h-3.8V82.1H30
				C38.5,85.1,46.5,89.2,54.5,94.5 M176,82.1V70L91.8,8.3C90.4,8.3,6.9,70,6.9,70v12h5.1v43.6v0.2l4.8,6.9v42.6v0.2h149.4v-0.2
				v-42.6l4.9-6.9l-0.2-0.2V82.1H176z"/>
		</g>
	</g>
</g>
</svg>
